<svg width="885" height="183" viewBox="0 0 885 183" fill="none" xmlns="http://www.w3.org/2000/svg">
<g clip-path="url(#clip0_0_3)">
<rect width="885" height="183" fill="white"/>
<path d="M265.809 41.9185C212.702 20.199 102.418 93.9123 56.0489 136.673C53.3853 139.129 55.1953 143.425 58.8186 143.425H242.963C246.523 143.425 248.408 139.117 246.169 136.349C222.488 107.075 221.128 76.0227 265.974 48.5644C268.626 46.9404 268.688 43.0957 265.809 41.9185Z" fill="url(#paint0_linear_0_3)" stroke="#1A70FC" stroke-width="5.03955"/>
<path d="M182.479 70.8503C149.779 57.954 84.264 110.352 55.8445 137.532C54.2221 139.084 55.3582 141.756 57.6031 141.756H171.692C173.898 141.756 175.078 139.082 173.708 137.353C158.569 118.248 154.994 92.5447 182.614 74.9767C184.239 73.9426 184.272 71.5572 182.479 70.8503Z" fill="url(#paint1_linear_0_3)" stroke="#1A70FC" stroke-width="5.03955"/>
<path d="M255.419 90.3064C232.941 81.4464 194.735 120.78 175.483 140.235C174.367 141.363 175.182 143.269 176.769 143.269H257.412C258.971 143.269 259.795 141.394 258.78 140.21C246.928 126.38 236.629 105.891 255.53 93.2577C256.663 92.5009 256.686 90.8059 255.419 90.3064Z" fill="url(#paint2_linear_0_3)" stroke="#1A70FC" stroke-width="5.03955"/>
<mask id="path-4-outside-1_0_3" maskUnits="userSpaceOnUse" x="370" y="42" width="379" height="105" fill="black">
<rect fill="white" x="370" y="42" width="379" height="105"/>
<path d="M450.521 46.768L446.937 65.2H406.361L401.881 87.472H435.289L431.705 106.032H398.169L391.001 142H371.801L390.745 46.768H450.521ZM483.564 46.768L468.588 123.568H508.652L504.94 142H445.676L464.364 46.768H483.564ZM560.489 143.28C534.249 143.28 515.561 124.464 515.561 98.608C515.561 68.4 537.961 45.488 568.169 45.488C594.537 45.488 613.097 64.048 613.097 90.16C613.097 120.88 591.081 143.28 560.489 143.28ZM562.409 124.592C579.945 124.592 593.129 109.872 593.129 90.8C593.129 75.056 582.249 64.176 566.249 64.176C548.713 64.176 535.529 78.64 535.529 97.712C535.529 113.584 546.537 124.592 562.409 124.592ZM725.917 46.768H747.165L693.405 144.176L678.045 83.248L637.341 144.176L622.749 46.768H641.821L648.733 100.144L685.469 44.592L697.885 100.4L725.917 46.768Z"/>
</mask>
<path d="M450.521 46.768L446.937 65.2H406.361L401.881 87.472H435.289L431.705 106.032H398.169L391.001 142H371.801L390.745 46.768H450.521ZM483.564 46.768L468.588 123.568H508.652L504.94 142H445.676L464.364 46.768H483.564ZM560.489 143.28C534.249 143.28 515.561 124.464 515.561 98.608C515.561 68.4 537.961 45.488 568.169 45.488C594.537 45.488 613.097 64.048 613.097 90.16C613.097 120.88 591.081 143.28 560.489 143.28ZM562.409 124.592C579.945 124.592 593.129 109.872 593.129 90.8C593.129 75.056 582.249 64.176 566.249 64.176C548.713 64.176 535.529 78.64 535.529 97.712C535.529 113.584 546.537 124.592 562.409 124.592ZM725.917 46.768H747.165L693.405 144.176L678.045 83.248L637.341 144.176L622.749 46.768H641.821L648.733 100.144L685.469 44.592L697.885 100.4L725.917 46.768Z" fill="#0061FF"/>
<path d="M450.521 46.768L451.503 46.9589L451.734 45.768H450.521V46.768ZM446.937 65.2V66.2H447.761L447.919 65.3909L446.937 65.2ZM406.361 65.2V64.2H405.542L405.381 65.0028L406.361 65.2ZM401.881 87.472L400.901 87.2748L400.66 88.472H401.881V87.472ZM435.289 87.472L436.271 87.6616L436.501 86.472H435.289V87.472ZM431.705 106.032V107.032H432.53L432.687 106.222L431.705 106.032ZM398.169 106.032V105.032H397.349L397.188 105.837L398.169 106.032ZM391.001 142V143H391.821L391.982 142.195L391.001 142ZM371.801 142L370.82 141.805L370.582 143H371.801V142ZM390.745 46.768V45.768H389.924L389.764 46.5729L390.745 46.768ZM449.539 46.5771L445.955 65.0091L447.919 65.3909L451.503 46.9589L449.539 46.5771ZM446.937 64.2H406.361V66.2H446.937V64.2ZM405.381 65.0028L400.901 87.2748L402.861 87.6692L407.341 65.3972L405.381 65.0028ZM401.881 88.472H435.289V86.472H401.881V88.472ZM434.307 87.2824L430.723 105.842L432.687 106.222L436.271 87.6616L434.307 87.2824ZM431.705 105.032H398.169V107.032H431.705V105.032ZM397.188 105.837L390.02 141.805L391.982 142.195L399.15 106.227L397.188 105.837ZM391.001 141H371.801V143H391.001V141ZM372.782 142.195L391.726 46.9631L389.764 46.5729L370.82 141.805L372.782 142.195ZM390.745 47.768H450.521V45.768H390.745V47.768ZM483.564 46.768L484.546 46.9594L484.778 45.768H483.564V46.768ZM468.588 123.568L467.606 123.377L467.374 124.568H468.588V123.568ZM508.652 123.568L509.632 123.765L509.873 122.568H508.652V123.568ZM504.94 142V143H505.759L505.92 142.197L504.94 142ZM445.676 142L444.695 141.807L444.461 143H445.676V142ZM464.364 46.768V45.768H463.541L463.383 46.5754L464.364 46.768ZM482.582 46.5766L467.606 123.377L469.57 123.759L484.546 46.9594L482.582 46.5766ZM468.588 124.568H508.652V122.568H468.588V124.568ZM507.672 123.371L503.96 141.803L505.92 142.197L509.632 123.765L507.672 123.371ZM504.94 141H445.676V143H504.94V141ZM446.657 142.193L465.345 46.9606L463.383 46.5754L444.695 141.807L446.657 142.193ZM464.364 47.768H483.564V45.768H464.364V47.768ZM560.489 142.28C534.799 142.28 516.561 123.91 516.561 98.608H514.561C514.561 125.018 533.699 144.28 560.489 144.28V142.28ZM516.561 98.608C516.561 68.9395 538.526 46.488 568.169 46.488V44.488C537.396 44.488 514.561 67.8605 514.561 98.608H516.561ZM568.169 46.488C581.112 46.488 592.083 51.0393 599.815 58.7405C607.548 66.4416 612.097 77.3475 612.097 90.16H614.097C614.097 76.8605 609.366 65.4304 601.227 57.3235C593.087 49.2167 581.594 44.488 568.169 44.488V46.488ZM612.097 90.16C612.097 120.339 590.517 142.28 560.489 142.28V144.28C591.645 144.28 614.097 121.421 614.097 90.16H612.097ZM562.409 125.592C580.589 125.592 594.129 110.328 594.129 90.8H592.129C592.129 109.416 579.301 123.592 562.409 123.592V125.592ZM594.129 90.8C594.129 82.6915 591.323 75.7703 586.394 70.8745C581.465 65.979 574.481 63.176 566.249 63.176V65.176C574.017 65.176 580.473 67.813 584.984 72.2935C589.495 76.7737 592.129 83.1645 592.129 90.8H594.129ZM566.249 63.176C548.079 63.176 534.529 78.1735 534.529 97.712H536.529C536.529 79.1065 549.347 65.176 566.249 65.176V63.176ZM534.529 97.712C534.529 105.885 537.367 112.869 542.31 117.811C547.252 122.754 554.236 125.592 562.409 125.592V123.592C554.71 123.592 548.254 120.926 543.724 116.397C539.195 111.867 536.529 105.411 536.529 97.712H534.529ZM725.917 46.768V45.768H725.311L725.031 46.3048L725.917 46.768ZM747.165 46.768L748.041 47.2512L748.859 45.768H747.165V46.768ZM693.405 144.176L692.435 144.42L693.055 146.879L694.281 144.659L693.405 144.176ZM678.045 83.248L679.015 83.0035L678.464 80.8203L677.213 82.6925L678.045 83.248ZM637.341 144.176L636.352 144.324L636.735 146.883L638.173 144.732L637.341 144.176ZM622.749 46.768V45.768H621.588L621.76 46.9161L622.749 46.768ZM641.821 46.768L642.813 46.6396L642.7 45.768H641.821V46.768ZM648.733 100.144L647.741 100.272L648.086 102.935L649.567 100.696L648.733 100.144ZM685.469 44.592L686.445 44.3748L685.934 42.0763L684.635 44.0404L685.469 44.592ZM697.885 100.4L696.909 100.617L697.503 103.289L698.771 100.863L697.885 100.4ZM725.917 47.768H747.165V45.768H725.917V47.768ZM746.289 46.2848L692.529 143.693L694.281 144.659L748.041 47.2512L746.289 46.2848ZM694.375 143.932L679.015 83.0035L677.075 83.4924L692.435 144.42L694.375 143.932ZM677.213 82.6925L636.509 143.62L638.173 144.732L678.877 83.8035L677.213 82.6925ZM638.33 144.028L623.738 46.6198L621.76 46.9161L636.352 144.324L638.33 144.028ZM622.749 47.768H641.821V45.768H622.749V47.768ZM640.829 46.8964L647.741 100.272L649.725 100.016L642.813 46.6396L640.829 46.8964ZM649.567 100.696L686.303 45.1436L684.635 44.0404L647.899 99.5924L649.567 100.696ZM684.493 44.8092L696.909 100.617L698.861 100.183L686.445 44.3748L684.493 44.8092ZM698.771 100.863L726.803 47.2312L725.031 46.3048L696.999 99.9368L698.771 100.863Z" fill="#1A70FC" mask="url(#path-4-outside-1_0_3)"/>
</g>
<defs>
<linearGradient id="paint0_linear_0_3" x1="164.91" y1="46.3121" x2="164.91" y2="143.425" gradientUnits="userSpaceOnUse">
<stop stop-color="#A8D1FF"/>
<stop offset="1" stop-color="#68AFFE"/>
</linearGradient>
<linearGradient id="paint1_linear_0_3" x1="123.333" y1="81.589" x2="123.333" y2="141.756" gradientUnits="userSpaceOnUse">
<stop stop-color="#A8D1FF"/>
<stop offset="1" stop-color="#68AFFE"/>
</linearGradient>
<linearGradient id="paint2_linear_0_3" x1="223.23" y1="100.74" x2="223.23" y2="143.269" gradientUnits="userSpaceOnUse">
<stop stop-color="#A8D1FF"/>
<stop offset="1" stop-color="#68AFFE"/>
</linearGradient>
<clipPath id="clip0_0_3">
<rect width="885" height="183" fill="white"/>
</clipPath>
</defs>
</svg>
